<?xml version="1.0" standalone="no"?>
<!DOCTYPE svg PUBLIC "-//W3C//DTD SVG 20010904//EN"
 "http://www.w3.org/TR/2001/REC-SVG-20010904/DTD/svg10.dtd">
<svg version="1.0" xmlns="http://www.w3.org/2000/svg"
 width="1024.000000pt" height="1037.000000pt" viewBox="0 0 1024.000000 1037.000000"
 preserveAspectRatio="xMidYMid meet">

<g transform="translate(0.000000,1037.000000) scale(0.100000,-0.100000)"
fill="#000000" stroke="none">
<path d="M8452 9973 c-6 -20 -10 -39 -8 -41 2 -2 9 13 16 33 7 20 10 38 8 41
-3 2 -10 -13 -16 -33z"/>
<path d="M8196 9454 c-3 -9 -6 -23 -6 -33 0 -10 -13 -45 -29 -78 -25 -51 -101
-275 -101 -297 0 -4 5 -4 12 0 8 5 9 2 5 -10 -4 -10 -1 -23 6 -31 11 -11 23
13 70 140 69 187 111 333 91 312 -4 -3 -15 -2 -24 3 -13 7 -20 6 -24 -6z"/>
<path d="M8815 9420 c3 -19 3 -30 -1 -23 -3 7 -12 9 -21 6 -12 -5 -14 -3 -8 8
6 10 5 11 -4 3 -8 -8 3 -52 45 -177 31 -92 60 -167 65 -167 4 0 14 14 23 31
14 29 13 36 -36 177 -56 163 -70 196 -63 142z"/>
<path d="M8813 9177 c0 -16 -21 -44 -62 -85 -33 -33 -61 -65 -61 -70 0 -5 -11
-21 -24 -35 -13 -14 -22 -28 -19 -31 3 -3 -2 -12 -11 -21 -9 -9 -14 -21 -11
-25 3 -5 -3 -14 -14 -20 -11 -5 -25 -26 -32 -45 -7 -19 -16 -35 -19 -35 -4 0
-7 -6 -7 -12 -2 -27 -14 -135 -18 -161 -7 -40 14 -67 51 -67 25 0 37 8 63 45
18 25 29 45 24 44 -19 -3 -33 2 -33 12 0 5 5 7 12 3 8 -5 9 0 6 14 -4 15 -2
22 9 22 8 0 11 5 8 10 -3 6 -2 10 3 10 10 0 25 37 23 53 -1 5 3 6 8 3 5 -4 12
-2 16 4 4 6 11 8 16 5 5 -4 9 -1 9 4 0 6 7 11 16 11 9 0 13 -5 9 -12 -11 -22
33 34 80 100 25 35 45 66 45 69 0 7 -81 227 -85 231 -1 2 -2 -8 -2 -21z"/>
<path d="M6690 8998 c18 -18 285 -226 465 -363 72 -55 162 -124 200 -155 39
-31 145 -113 237 -183 160 -121 169 -126 195 -115 16 7 32 15 36 18 4 4 -36
40 -90 80 -54 40 -170 133 -258 205 -88 73 -216 177 -285 232 -69 56 -141 114
-160 131 l-35 31 35 -5 c19 -3 109 -30 200 -59 90 -30 166 -53 167 -51 5 5
-189 73 -342 121 -105 33 -302 99 -360 120 -18 7 -18 6 -5 -7z m562 -352 c42
-35 47 -47 18 -41 -11 2 -18 0 -15 -6 4 -5 13 -9 21 -9 8 0 14 -5 14 -11 0 -5
6 -7 13 -3 9 5 9 4 0 -6 -9 -9 -18 -7 -45 11 -71 50 -128 101 -122 110 3 5 -1
6 -9 3 -8 -3 -18 -1 -22 5 -3 6 -1 11 6 11 6 0 9 8 6 19 -4 16 5 13 47 -16 28
-20 68 -50 88 -67z"/>
<path d="M10130 8940 c-47 -15 -185 -60 -308 -100 -122 -40 -230 -79 -240 -86
-9 -7 82 21 203 62 121 41 225 73 231 72 7 -2 -20 -29 -60 -61 -39 -31 -114
-92 -167 -135 -53 -42 -152 -124 -221 -182 -69 -58 -184 -150 -256 -205 -71
-55 -127 -103 -124 -106 4 -4 21 -11 39 -17 29 -10 36 -8 80 27 164 128 463
359 563 436 293 224 370 288 370 306 0 24 -7 23 -110 -11z m-126 -137 c-7 -32
-56 -80 -164 -162 -117 -90 -168 -122 -175 -112 -3 6 -15 8 -26 6 -32 -6 -11
14 130 124 249 193 246 191 235 144z"/>
<path d="M9898 8893 c7 -3 16 -2 19 1 4 3 -2 6 -13 5 -11 0 -14 -3 -6 -6z"/>
<path d="M7435 8746 c17 -7 41 -16 55 -20 20 -5 19 -3 -5 8 -16 7 -41 16 -55
20 -20 5 -19 3 5 -8z"/>
<path d="M9509 8706 c-82 -41 -359 -128 -418 -131 -70 -5 -76 -6 -356 -95
l-231 -72 -157 -212 c-87 -116 -167 -227 -179 -246 l-22 -35 29 25 28 25 -28
-50 c-40 -71 -121 -192 -163 -245 -67 -83 -155 -180 -160 -175 -3 2 1 13 9 22
13 17 12 17 -4 4 -10 -8 -83 -100 -163 -205 -262 -345 -304 -399 -304 -390 0
5 -5 2 -10 -6 -28 -43 2 -31 118 49 70 48 260 177 422 286 162 110 361 244
442 299 l147 99 238 -160 c362 -244 676 -456 796 -538 59 -41 107 -71 106 -67
0 4 -14 45 -30 92 -16 47 -27 72 -25 55 3 -16 8 -38 11 -47 12 -31 -9 -20 -65
33 -30 29 -81 69 -112 91 -32 21 -58 41 -58 44 0 2 26 -13 58 -34 31 -21 62
-41 68 -45 9 -5 -26 120 -105 373 -12 37 -19 52 -18 34 2 -24 0 -31 -10 -27
-8 3 -12 12 -9 19 3 7 0 16 -6 20 -6 4 -8 3 -5 -3 4 -6 0 -14 -9 -17 -11 -4
-15 -2 -11 7 3 8 -3 13 -14 13 -11 0 -19 -4 -19 -8 0 -4 -5 -8 -10 -8 -6 0
-10 7 -8 16 2 10 -3 19 -11 22 -10 3 -12 0 -8 -12 8 -21 -2 -21 -19 2 -12 15
-12 14 -7 -8 4 -14 15 -32 25 -41 10 -9 18 -23 18 -31 0 -8 46 -79 103 -159
114 -159 120 -169 113 -169 -2 0 -22 24 -43 53 -206 283 -299 393 -385 453
-37 26 -64 25 -54 -2 3 -8 0 -13 -7 -11 -7 1 -12 -10 -12 -30 0 -18 -3 -33 -7
-33 -4 0 -13 -12 -21 -27 -7 -16 -20 -27 -28 -25 -20 5 -7 -6 106 -83 244
-168 301 -208 315 -222 9 -9 1 -7 -20 5 -23 13 -42 17 -55 12 -12 -4 -31 -2
-50 8 -37 19 -263 169 -369 246 -44 31 -86 61 -95 66 -14 8 -14 10 1 27 16 17
10 23 -112 109 -70 51 -136 95 -146 98 -12 4 -30 -3 -49 -19 l-30 -25 38 21
37 21 0 -34 c0 -24 -6 -37 -24 -48 -13 -8 -85 -56 -159 -106 -126 -87 -209
-137 -164 -101 21 17 9 31 -13 16 -36 -22 -30 -5 10 32 l45 40 -60 -36 c-33
-21 -94 -61 -135 -89 -106 -74 -412 -281 -430 -291 -16 -9 32 49 82 100 53 53
196 243 190 251 -4 4 -2 4 5 1 6 -4 17 -1 25 6 7 8 19 12 26 11 7 -1 8 0 2 3
-8 3 -7 9 1 19 6 8 15 11 20 8 5 -3 9 0 9 5 0 6 6 11 14 11 8 0 18 9 21 21 4
13 12 18 22 15 11 -4 13 -2 9 9 -3 8 -2 14 2 13 14 -5 72 36 72 50 0 8 6 12
14 9 8 -3 24 4 37 16 12 12 32 23 43 24 11 2 24 9 28 16 6 9 8 9 8 -1 0 -10 3
-10 15 2 8 8 15 19 15 25 0 6 6 12 13 12 6 1 23 3 37 4 13 1 26 8 28 14 2 6
12 11 23 11 10 0 19 4 19 10 0 5 14 7 30 5 22 -2 33 2 40 15 5 10 18 17 27 16
10 -2 21 2 26 8 5 8 10 6 17 -4 8 -11 9 -9 6 12 -3 15 0 30 5 33 5 4 9 1 9 -6
0 -6 10 -1 23 12 12 14 26 25 31 25 17 2 46 29 46 43 0 8 3 11 7 8 3 -4 20 8
37 26 17 17 37 30 45 29 9 -2 12 2 8 12 -3 8 -1 16 6 19 8 2 7 10 -4 28 -23
37 -40 81 -29 74 5 -3 37 -42 70 -85 33 -43 65 -82 70 -85 9 -5 -80 118 -254
355 -47 64 -48 65 -24 71 12 4 30 7 38 8 12 1 12 -1 2 -8 -10 -6 20 -19 90
-41 56 -17 178 -56 270 -86 92 -31 182 -57 200 -60 29 -3 45 6 133 75 68 53
99 84 97 96 -2 12 1 15 10 9 9 -5 8 -2 -2 11 -14 17 -13 18 3 12 16 -6 21 2
18 31 -1 6 3 12 9 12 5 0 10 7 10 15 0 8 5 16 10 16 6 1 16 2 23 3 6 1 11 9
11 19 -1 9 2 14 7 12 4 -3 15 8 24 25 11 21 12 30 4 30 -7 0 -9 3 -5 8 4 4 13
7 19 7 5 0 12 6 15 14 3 8 0 11 -7 7 -6 -4 -11 -2 -11 3 0 6 4 11 9 11 5 0 14
14 20 30 5 17 8 30 5 30 -3 0 0 9 6 20 6 11 9 20 8 19 -2 0 -24 -10 -49 -23z
m-19 -146 c0 -5 -5 -10 -11 -10 -5 0 -7 5 -4 10 3 6 8 10 11 10 2 0 4 -4 4
-10z m-60 -50 c0 -5 -5 -10 -11 -10 -5 0 -7 5 -4 10 3 6 8 10 11 10 2 0 4 -4
4 -10z m-453 -1012 c-3 -8 -6 -5 -6 6 -1 11 2 17 5 13 3 -3 4 -12 1 -19z m333
-28 c0 -5 -5 -10 -11 -10 -5 0 -7 5 -4 10 3 6 8 10 11 10 2 0 4 -4 4 -10z"/>
<path d="M9576 8721 c-4 -7 -5 -15 -2 -18 9 -9 19 4 14 18 -4 11 -6 11 -12 0z"/>
<path d="M7460 8702 c0 -10 31 -36 52 -45 9 -3 24 -22 33 -41 10 -20 21 -33
26 -31 4 3 6 -4 4 -15 -2 -11 1 -20 9 -20 13 0 74 -70 68 -78 -2 -3 0 -8 5
-11 14 -9 54 -97 57 -126 2 -18 22 -40 67 -75 76 -60 68 -60 256 4 151 51 182
64 166 67 -7 1 -17 3 -23 4 -5 1 -13 3 -17 4 -5 1 -1 6 7 11 13 9 13 10 0 11
-8 1 -19 1 -24 0 -5 -1 -4 5 3 13 11 13 9 21 -15 49 -16 18 -38 45 -49 60 -19
26 -55 41 -200 80 -22 6 -117 41 -212 79 -162 64 -213 78 -213 60z m690 -312
c0 -5 -5 -10 -11 -10 -5 0 -7 5 -4 10 3 6 8 10 11 10 2 0 4 -4 4 -10z"/>
<path d="M9553 8674 c3 -4 2 -15 -4 -26 -17 -32 -4 -30 15 2 16 28 16 30 0 30
-10 0 -14 -3 -11 -6z"/>
<path d="M8151 8516 c8 -8 307 -106 320 -105 8 0 -58 25 -146 55 -146 49 -186
61 -174 50z"/>
<path d="M7024 8138 c-10 -12 -13 -18 -6 -14 19 11 -105 -248 -417 -873 -302
-603 -612 -1168 -634 -1154 -6 3 -7 1 -3 -5 8 -13 -33 -84 -44 -77 -4 3 -7 -3
-6 -12 0 -10 -4 -18 -11 -18 -6 0 -15 -4 -20 -9 -5 -5 -3 -6 5 -2 18 11 15 0
-14 -50 -19 -33 -29 -42 -38 -34 -9 7 -13 5 -13 -5 0 -8 4 -12 9 -9 14 9 9 -7
-13 -43 -13 -21 -27 -32 -35 -29 -8 3 -14 1 -14 -3 0 -5 5 -11 12 -13 9 -3 9
-6 0 -12 -7 -4 -12 -2 -12 5 0 7 -9 5 -22 -7 -21 -18 -22 -18 -8 0 17 22 22
40 20 88 0 27 5 40 22 52 12 9 17 16 10 16 -6 0 -12 7 -12 16 0 8 5 12 10 9 6
-3 10 -1 10 4 0 14 -13 14 -28 -1 -8 -8 -12 -8 -12 -1 0 14 25 34 33 26 4 -3
7 2 7 12 0 15 -3 16 -12 7 -14 -14 -28 -16 -28 -4 0 5 12 14 27 21 21 9 28 9
34 0 6 -10 11 -10 23 0 9 7 24 10 33 7 15 -6 16 -5 6 5 -18 18 -16 54 2 73 8
8 15 19 15 25 0 6 6 11 13 11 6 0 1 9 -12 19 -22 17 -22 18 -5 25 18 7 18 8 1
21 -13 9 -17 24 -16 54 2 22 0 43 -3 46 -8 9 -38 -6 -32 -16 3 -5 -2 -12 -10
-15 -9 -3 -16 -16 -16 -28 -1 -20 -1 -20 -12 -2 -8 15 -8 21 0 24 7 2 12 13
11 25 0 12 -3 16 -6 10 -2 -7 -11 -13 -19 -13 -13 0 -21 42 -15 80 5 28 2 150
-4 159 -3 5 -1 11 4 13 5 1 7 15 4 30 -3 15 -10 25 -15 22 -6 -4 -5 1 1 12 5
11 13 28 17 39 6 19 7 18 14 -5 5 -14 8 -21 9 -17 2 18 34 -26 34 -47 0 -17 5
-22 21 -21 16 1 20 7 18 24 -2 12 1 28 6 34 16 20 14 117 -2 123 -14 5 -14 31
0 76 3 9 0 19 -5 22 -6 4 -8 20 -6 36 2 18 -1 30 -8 30 -8 0 -7 4 1 12 7 7 12
15 12 19 0 14 -31 18 -50 7 -25 -16 -36 -4 -22 26 8 19 8 26 -1 29 -6 2 -11
17 -10 33 2 27 1 27 -7 7 -6 -16 -18 -23 -35 -23 -16 0 -24 4 -20 11 4 6 13 8
21 5 18 -7 18 -1 -2 18 -14 15 -14 16 2 16 13 0 12 5 -10 26 -14 15 -26 31
-26 36 0 6 -8 7 -17 4 -16 -6 -16 -6 0 12 9 10 17 25 17 33 0 17 -39 -30 -40
-48 0 -7 -6 -13 -12 -13 -10 0 -10 -2 0 -9 19 -12 17 -21 -10 -40 -16 -11 -23
-26 -23 -48 0 -17 3 -29 7 -27 5 3 8 -5 8 -18 0 -13 6 -30 13 -36 12 -13 13
-17 16 -48 1 -11 8 -15 24 -12 16 3 23 0 23 -13 0 -10 -7 -15 -16 -14 -8 2
-21 4 -27 4 -7 1 -13 8 -13 16 0 8 -4 15 -10 15 -5 0 -10 -4 -10 -9 0 -5 -3
-16 -6 -25 -5 -12 0 -16 17 -17 23 0 23 -1 4 -9 -17 -7 -17 -9 -2 -9 10 -1 17
-9 17 -20 0 -32 -11 -50 -26 -44 -9 3 -14 -2 -14 -16 0 -12 6 -21 14 -21 20 0
27 -13 14 -30 -8 -12 -9 -11 -4 3 5 17 3 16 -21 -3 -20 -16 -28 -18 -34 -8 -4
7 -4 15 0 18 15 10 18 47 5 71 -18 33 -17 57 4 62 14 4 14 5 -3 6 -18 1 -20 7
-17 46 3 28 0 45 -7 45 -6 0 -8 7 -5 15 4 9 0 15 -7 15 -12 0 -12 2 -1 9 17
10 11 57 -6 53 -8 -1 -11 2 -7 8 3 6 10 8 15 5 5 -3 11 -1 15 5 3 5 -6 21 -21
35 -15 14 -23 25 -19 25 5 0 17 -8 27 -17 18 -16 19 -16 9 10 -12 31 2 45 26
25 14 -11 15 -10 8 12 -6 20 -5 23 6 13 17 -17 26 -16 32 1 4 11 1 13 -10 9
-36 -14 1 18 72 62 62 39 77 45 94 35 17 -8 20 -8 15 5 -7 16 17 45 38 45 7 0
19 9 26 20 7 12 17 18 23 15 10 -7 -40 -52 -52 -48 -4 1 -9 -10 -11 -26 -4
-25 -1 -28 21 -26 38 3 41 4 41 15 0 14 -37 12 -43 -2 -3 -8 -6 -6 -6 4 -1 10
11 24 27 32 15 8 23 15 18 16 -4 0 2 9 15 21 13 11 19 18 12 15 -6 -4 -14 -2
-18 3 -3 6 7 17 23 25 16 8 35 23 43 32 8 10 -40 -18 -106 -62 -452 -302 -988
-628 -1475 -899 l-105 -59 40 -18 c67 -30 307 -106 432 -137 124 -31 263 -55
376 -67 37 -3 67 -10 67 -14 0 -11 -99 -165 -180 -280 -286 -406 -761 -923
-1210 -1316 -317 -278 -584 -480 -890 -676 -747 -476 -1428 -752 -2129 -864
-157 -25 -451 -29 -620 -10 -79 9 -145 15 -147 14 -2 -2 9 -22 24 -44 134
-198 374 -368 663 -469 221 -77 392 -105 689 -112 425 -10 843 55 1344 208
763 234 1519 618 2246 1142 369 266 661 515 975 831 436 438 753 844 952 1221
l58 110 170 22 c94 13 233 29 310 36 l140 12 42 85 c73 150 253 579 253 605 0
3 -109 2 -242 -1 -315 -8 -673 20 -686 54 -3 9 2 129 11 266 26 388 63 1183
55 1191 -3 3 -13 -5 -24 -17z m-1494 -1078 c0 -5 -5 -10 -11 -10 -5 0 -7 5 -4
10 3 6 8 10 11 10 2 0 4 -4 4 -10z m-44 -35 c-1 -8 -5 -17 -8 -21 -5 -4 -4 16
1 34 3 9 9 -1 7 -13z m54 -5 c0 -5 -8 -10 -17 -10 -15 0 -16 2 -3 10 19 12 20
12 20 0z m183 -13 c2 -12 8 -30 12 -39 4 -11 3 -18 -4 -18 -6 0 -11 9 -11 20
0 13 -7 20 -18 20 -24 0 -26 35 -2 37 11 1 20 -7 23 -20z m57 -47 c0 -5 -2
-10 -4 -10 -3 0 -8 5 -11 10 -3 6 -1 10 4 10 6 0 11 -4 11 -10z m-20 -29 c0
-6 -4 -12 -8 -15 -5 -3 -9 1 -9 9 0 8 4 15 9 15 4 0 8 -4 8 -9z m-253 -53 c-3
-7 -5 -2 -5 12 0 14 2 19 5 13 2 -7 2 -19 0 -25z m363 -11 c0 -2 -12 -4 -27
-4 -16 0 -22 2 -15 4 6 3 12 11 12 20 0 13 2 13 15 -1 8 -8 15 -17 15 -19z
m-286 -61 c2 -14 0 -26 -5 -26 -4 0 -7 14 -7 30 1 35 8 33 12 -4z m231 16 c-2
-3 0 -13 5 -23 7 -12 6 -20 -2 -25 -6 -4 -14 -2 -16 4 -2 6 -9 9 -17 6 -7 -3
-16 -1 -20 5 -8 14 14 37 36 37 10 0 16 -2 14 -4z m-75 -42 c0 -5 -2 -10 -4
-10 -3 0 -8 5 -11 10 -3 6 -1 10 4 10 6 0 11 -4 11 -10z m17 -52 c-3 -8 -6 -5
-6 6 -1 11 2 17 5 13 3 -3 4 -12 1 -19z m-271 -53 c-8 -8 -18 -15 -22 -15 -3
0 -1 7 6 15 7 8 17 15 22 15 5 0 3 -7 -6 -15z m224 11 c0 -2 -7 -7 -16 -10 -8
-3 -12 -2 -9 4 6 10 25 14 25 6z m75 -6 c-3 -5 -10 -10 -16 -10 -5 0 -9 5 -9
10 0 6 7 10 16 10 8 0 12 -4 9 -10z m67 -22 c2 -13 9 -22 16 -20 6 1 12 -2 12
-7 0 -5 -11 -8 -25 -7 -15 0 -23 6 -21 13 3 6 0 13 -6 15 -6 2 -8 10 -4 16 11
19 24 14 28 -10z m-230 -56 c1 -23 -2 -45 -5 -49 -4 -3 -7 18 -7 47 0 62 9 63
12 2z m15 16 c-3 -8 -6 -5 -6 6 -1 11 2 17 5 13 3 -3 4 -12 1 -19z m35 -30
c-6 -6 -11 -2 -15 11 -3 12 -1 19 4 15 5 -3 10 1 10 8 1 7 3 5 6 -6 3 -10 1
-22 -5 -28z m202 -14 c3 -8 2 -12 -4 -9 -6 3 -10 10 -10 16 0 14 7 11 14 -7z
m-517 -31 c-3 -10 -5 -4 -5 12 0 17 2 24 5 18 2 -7 2 -21 0 -30z m240 -29 c-3
-3 -12 -4 -19 -1 -8 3 -5 6 6 6 11 1 17 -2 13 -5z m83 -23 c-8 -15 -6 -20 5
-23 10 -2 7 -7 -10 -15 -17 -8 -27 -8 -32 -1 -3 6 -1 8 5 4 6 -3 13 -2 17 4 3
5 1 10 -4 10 -6 0 -11 5 -11 11 0 5 4 8 9 5 5 -3 11 1 15 9 3 8 8 15 11 15 3
0 1 -9 -5 -19z m-73 -61 c3 -10 2 -11 -4 -4 -4 6 -15 14 -23 17 -11 5 -9 6 4
4 11 -1 21 -9 23 -17z m82 -4 c9 -11 9 -16 -1 -22 -7 -4 -10 -4 -6 1 4 4 3 14
-3 22 -6 7 -9 13 -6 13 2 0 10 -6 16 -14z m-29 -26 c0 -5 -8 -10 -17 -10 -15
0 -16 2 -3 10 19 12 20 12 20 0z m-22 -45 c-3 -3 -9 2 -12 12 -6 14 -5 15 5 6
7 -7 10 -15 7 -18z m52 -7 c0 -18 -2 -20 -9 -8 -6 8 -7 18 -5 22 9 14 14 9 14
-14z m98 -93 c0 -14 -6 -25 -14 -25 -11 0 -11 5 -2 25 6 14 12 25 13 25 2 0 3
-11 3 -25z m-8 -50 c-7 -9 -15 -13 -19 -10 -3 3 1 10 9 15 21 14 24 12 10 -5z
m56 -8 c4 -4 0 -7 -9 -7 -9 0 -18 4 -21 9 -7 10 20 9 30 -2z m4 -38 c0 -14
-17 -10 -23 5 -4 10 -1 13 9 9 7 -3 14 -9 14 -14z m0 -38 c0 -5 -7 -12 -16
-15 -8 -3 -13 -2 -9 3 3 5 -1 12 -7 14 -7 3 -3 6 10 6 12 1 22 -3 22 -8z m20
-51 c0 -5 -2 -10 -4 -10 -3 0 -8 5 -11 10 -3 6 -1 10 4 10 6 0 11 -4 11 -10z
m-60 -10 c0 -5 -5 -10 -11 -10 -5 0 -7 5 -4 10 3 6 8 10 11 10 2 0 4 -4 4 -10z
m-175 -234 c0 -34 -22 -52 -31 -24 -4 15 -1 26 12 35 10 7 18 13 18 13 1 0 1
-11 1 -24z m60 -67 c4 -11 14 -16 30 -14 20 2 23 0 14 -11 -14 -17 2 -18 20
-1 8 6 1 -7 -14 -31 -25 -38 -29 -40 -40 -25 -7 10 -11 21 -9 25 3 5 0 8 -5 8
-6 0 -11 8 -12 18 0 14 -2 14 -9 -3 -5 -13 -2 -27 8 -40 15 -18 14 -18 -7 1
-18 17 -21 27 -16 56 7 37 31 47 40 17z m25 17 c0 -3 -4 -8 -10 -11 -5 -3 -10
-1 -10 4 0 6 5 11 10 11 6 0 10 -2 10 -4z m-93 -38 c-3 -7 -5 -2 -5 12 0 14 2
19 5 13 2 -7 2 -19 0 -25z m-7 -145 c-11 -17 -11 -17 -6 0 3 10 6 24 7 30 0 9
2 9 5 0 3 -7 0 -20 -6 -30z m54 2 c-9 -14 -18 -25 -21 -25 -5 0 5 18 20 38 17
22 18 13 1 -13z m-174 -135 c0 -5 -5 -10 -11 -10 -5 0 -7 5 -4 10 3 6 8 10 11
10 2 0 4 -4 4 -10z m34 -34 c-6 -19 -5 -20 12 -6 14 12 13 8 -5 -17 -12 -18
-25 -33 -28 -33 -3 0 0 7 7 15 10 12 10 19 2 27 -9 9 -12 8 -12 -6 0 -9 -4
-15 -10 -11 -13 8 8 52 26 52 10 0 12 -7 8 -21z m-64 -130 c0 -2 -8 -10 -17
-17 -16 -13 -17 -12 -4 4 13 16 21 21 21 13z"/>
<path d="M5695 5701 c-3 -5 -1 -12 4 -15 5 -3 11 1 15 9 6 16 -9 21 -19 6z"/>
<path d="M6979 8103 c-13 -16 -12 -17 4 -4 9 7 17 15 17 17 0 8 -8 3 -21 -13z"/>
<path d="M8220 8105 c-7 -8 -21 -15 -31 -15 -10 0 -21 -4 -24 -10 -3 -6 2 -7
12 -4 10 3 0 -5 -21 -17 -22 -12 -46 -27 -53 -35 -8 -7 -21 -10 -30 -7 -10 4
-14 2 -10 -4 4 -6 0 -14 -9 -17 -9 -3 -12 -2 -9 5 5 7 -5 8 -32 2 -21 -4 -57
-7 -80 -7 -24 1 -40 -2 -38 -6 3 -5 -13 -11 -36 -15 -22 -4 -43 -13 -46 -20
-2 -8 -11 -11 -19 -8 -8 3 -14 2 -13 -3 1 -5 -3 -22 -10 -38 -6 -16 -10 -35
-7 -42 3 -7 0 -15 -7 -18 -13 -5 18 -36 37 -36 5 0 1 7 -10 15 -18 14 -17 15
11 8 17 -4 41 -7 54 -6 14 1 19 -2 12 -6 -9 -6 -7 -12 5 -22 10 -8 15 -9 11
-2 -5 8 -1 11 12 10 16 -1 18 -4 8 -16 -10 -12 -9 -13 10 -3 16 9 22 9 25 0 3
-9 10 -8 22 5 10 9 23 14 29 10 6 -4 8 0 4 10 -4 11 -2 14 7 11 8 -3 32 18 57
48 37 45 122 144 193 226 16 18 17 22 4 22 -9 0 -21 -7 -28 -15z m-360 -155
c8 -5 11 -10 5 -10 -5 0 -17 5 -25 10 -8 5 -10 10 -5 10 6 0 17 -5 25 -10z"/>
<path d="M6899 8043 c-13 -16 -12 -17 4 -4 9 7 17 15 17 17 0 8 -8 3 -21 -13z"/>
<path d="M6739 7923 c-13 -16 -12 -17 4 -4 9 7 17 15 17 17 0 8 -8 3 -21 -13z"/>
<path d="M6670 7874 c-54 -43 -61 -50 -35 -36 22 12 93 71 85 71 -3 0 -25 -16
-50 -35z"/>
<path d="M6565 7794 l-30 -26 33 22 c17 12 32 23 32 26 0 7 -4 5 -35 -22z"/>
<path d="M8436 7797 c3 -10 9 -15 12 -12 3 3 0 11 -7 18 -10 9 -11 8 -5 -6z"/>
<path d="M6409 7683 c-13 -16 -12 -17 4 -4 9 7 17 15 17 17 0 8 -8 3 -21 -13z"/>
<path d="M6369 7653 c-13 -16 -12 -17 4 -4 9 7 17 15 17 17 0 8 -8 3 -21 -13z"/>
<path d="M8273 7599 c-24 -17 -43 -32 -43 -35 0 -3 20 9 45 26 25 17 45 33 45
35 0 7 -2 6 -47 -26z"/>
<path d="M6269 7583 c-13 -16 -12 -17 4 -4 9 7 17 15 17 17 0 8 -8 3 -21 -13z"/>
<path d="M6181 7525 c-35 -24 -69 -49 -75 -56 -6 -6 24 12 67 40 42 28 77 54
77 56 0 7 0 7 -69 -40z"/>
<path d="M6054 7438 c-41 -30 -52 -42 -29 -30 26 15 72 51 64 52 -4 0 -19 -10
-35 -22z"/>
<path d="M9546 7201 c7 -38 42 -142 43 -126 0 6 -10 44 -24 85 -14 41 -22 60
-19 41z"/>
<path d="M5740 7176 c0 -14 5 -26 10 -26 6 0 10 9 10 19 0 11 -4 23 -10 26 -6
4 -10 -5 -10 -19z"/>
<path d="M5800 7180 c0 -5 5 -10 11 -10 5 0 7 5 4 10 -3 6 -8 10 -11 10 -2 0
-4 -4 -4 -10z"/>
<path d="M5802 7144 c-7 -8 -8 -14 -3 -14 10 0 25 19 20 25 -2 1 -10 -3 -17
-11z"/>
<path d="M5841 7143 c-1 -12 -7 -24 -13 -26 -10 -4 -10 -6 0 -6 15 -1 26 23
19 41 -3 7 -6 3 -6 -9z"/>
<path d="M5720 7140 c0 -5 5 -10 11 -10 5 0 7 -5 3 -12 -4 -6 -3 -8 4 -4 6 3
13 -2 15 -11 4 -15 5 -15 6 3 1 20 -16 44 -31 44 -4 0 -8 -4 -8 -10z"/>
<path d="M5776 7105 c4 -8 8 -15 10 -15 2 0 4 7 4 15 0 8 -4 15 -10 15 -5 0
-7 -7 -4 -15z"/>
<path d="M5601 7094 c0 -11 3 -14 6 -6 3 7 2 16 -1 19 -3 4 -6 -2 -5 -13z"/>
<path d="M5630 7090 c-11 -7 -11 -10 -2 -10 7 0 10 -4 7 -10 -3 -5 0 -7 9 -4
8 3 12 12 9 20 -6 16 -4 16 -23 4z"/>
<path d="M5920 7020 c0 -5 5 -10 10 -10 6 0 10 5 10 10 0 6 -4 10 -10 10 -5 0
-10 -4 -10 -10z"/>
<path d="M5871 7001 c-11 -7 -11 -10 0 -17 8 -5 23 -10 33 -11 19 -3 19 -3 1
17 -10 11 -19 20 -19 20 -1 0 -7 -4 -15 -9z"/>
<path d="M8526 6918 c-74 -176 -225 -473 -323 -638 -494 -826 -1321 -1783
-2119 -2452 -514 -431 -963 -739 -1524 -1048 -544 -299 -917 -474 -1353 -634
-27 -10 -46 -20 -44 -22 8 -8 390 66 557 108 478 118 1030 345 1550 638 426
239 1025 618 1365 864 293 212 560 456 724 661 154 193 156 195 135 160 -64
-109 -311 -468 -459 -664 -252 -337 -436 -544 -751 -847 -573 -551 -1130 -987
-1745 -1366 -386 -238 -984 -548 -1364 -708 -237 -99 -621 -235 -792 -281 -68
-17 -123 -35 -123 -40 0 -9 201 -80 319 -114 288 -81 548 -115 877 -115 230 0
392 13 619 50 491 80 921 222 1390 458 94 47 197 99 230 116 39 19 76 30 106
30 53 1 38 11 320 -225 96 -80 302 -248 458 -373 365 -292 495 -381 630 -430
140 -51 221 -44 295 24 96 88 134 198 202 584 31 171 64 358 75 416 10 58 42
236 70 395 28 160 63 362 79 450 16 88 31 180 35 205 4 25 17 104 31 177 13
72 51 291 84 485 62 367 146 853 224 1308 79 464 264 1579 291 1755 14 94 30
197 35 230 48 290 29 762 -36 899 -10 20 -20 36 -24 36 -3 0 -23 -42 -44 -92z"/>
<path d="M5638 6913 c7 -3 16 -2 19 1 4 3 -2 6 -13 5 -11 0 -14 -3 -6 -6z"/>
<path d="M5910 6896 c0 -2 7 -9 15 -16 9 -7 15 -8 15 -2 0 5 -7 12 -15 16 -8
3 -15 4 -15 2z"/>
<path d="M5800 6592 c0 -12 4 -22 9 -22 10 0 9 26 -2 36 -4 4 -7 -2 -7 -14z"/>
<path d="M5878 6365 c3 -19 8 -23 15 -16 8 8 7 16 -5 27 -14 14 -15 14 -10
-11z"/>
<path d="M5905 6270 c3 -5 8 -10 11 -10 2 0 4 5 4 10 0 6 -5 10 -11 10 -5 0
-7 -4 -4 -10z"/>
<path d="M5913 6079 c-2 -23 3 -25 10 -4 4 8 3 16 -1 19 -4 3 -9 -4 -9 -15z"/>
<path d="M5811 5974 c0 -11 3 -14 6 -6 3 7 2 16 -1 19 -3 4 -6 -2 -5 -13z"/>
<path d="M5820 5939 c0 -5 5 -7 10 -4 6 3 10 8 10 11 0 2 -4 4 -10 4 -5 0 -10
-5 -10 -11z"/>
<path d="M5787 5833 c-10 -9 -9 -23 2 -23 5 0 11 7 15 15 5 15 -5 20 -17 8z"/>
</g>
</svg>
